<svg width="18" height="16" viewBox="0 0 18 16" fill="none" xmlns="http://www.w3.org/2000/svg">
<path d="M0.568733 16.0008H2.8456C3.15972 16.0008 3.41433 15.7461 3.41433 15.432V5.47987C3.41433 5.16572 3.15972 4.91113 2.8456 4.91113H0.568733C0.254583 4.91113 0 5.16572 0 5.47987V15.432C0 15.7461 0.254583 16.0008 0.568733 16.0008Z" fill="white"/>
<path d="M0.568733 3.15934H2.8456C3.15972 3.15934 3.41433 2.90472 3.41433 2.5906V0.568733C3.41433 0.254615 3.15972 0 2.8456 0H0.568733C0.254583 0 0 0.254615 0 0.568733V2.5906C0 2.90472 0.254583 3.15934 0.568733 3.15934Z" fill="white"/>
<path d="M16.6578 6.06219C16.3379 5.64104 15.8661 5.2947 15.2423 5.02323C14.6185 4.75195 13.9299 4.61621 13.1766 4.61621C11.6472 4.61621 10.3513 5.19987 9.28892 6.3674C9.07752 6.59971 8.92382 6.54892 8.92382 6.23477V5.4766C8.92382 5.16245 8.66917 4.90787 8.35505 4.90787H6.32117C6.00702 4.90787 5.75244 5.16245 5.75244 5.4766V15.4287C5.75244 15.7429 6.00706 15.9975 6.32117 15.9975H8.59804C8.91219 15.9975 9.16677 15.7429 9.16677 15.4287V11.9676C9.16677 10.5257 9.25384 9.53742 9.42798 9.00281C9.60205 8.4682 9.92416 8.03891 10.394 7.71487C10.8638 7.39084 11.3944 7.22874 11.9858 7.22874C12.4475 7.22874 12.8424 7.34217 13.1706 7.56906C13.4987 7.79592 13.7356 8.11372 13.8814 8.52289C14.0273 8.93199 14.1002 9.83316 14.1002 11.2265V15.4287C14.1002 15.7428 14.3548 15.9975 14.6689 15.9975H16.9457C17.2599 15.9975 17.5145 15.7428 17.5145 15.4287V9.79263C17.5145 8.79632 17.4517 8.03077 17.3262 7.49616C17.2008 6.96155 16.9779 6.48356 16.6578 6.06219Z" fill="white"/>
</svg>
