<svg width="16" height="16" viewBox="0 0 16 16" fill="none" xmlns="http://www.w3.org/2000/svg">
<path d="M13.045 3.74775C13.045 4.18018 12.6847 4.5045 12.2883 4.5045C11.8559 4.5045 11.5315 4.14414 11.5315 3.74775C11.5315 3.31532 11.8919 2.99099 12.2883 2.99099C12.6847 2.95495 13.045 3.31532 13.045 3.74775ZM16 4.07207V11.9279C16 14.1622 14.1622 16 11.9279 16H4.07207C1.83784 16 0 14.1622 0 11.9279V4.07207C0 1.83784 1.83784 0 4.07207 0H11.9279C14.1982 0 16 1.83784 16 4.07207ZM14.4865 4.07207C14.4865 2.66667 13.3333 1.51351 11.9279 1.51351H4.07207C2.66667 1.51351 1.51351 2.66667 1.51351 4.07207V11.9279C1.51351 13.3333 2.66667 14.4865 4.07207 14.4865H11.9279C13.3694 14.4865 14.5225 13.3333 14.5225 11.9279L14.4865 4.07207ZM12.1802 8C12.1802 5.69369 10.3063 3.81982 8 3.81982C5.69369 3.81982 3.81982 5.69369 3.81982 8C3.81982 10.3063 5.69369 12.1802 8 12.1802C10.3063 12.1802 12.1802 10.3063 12.1802 8ZM10.6667 8C10.6667 9.47748 9.47748 10.6667 8 10.6667C6.52252 10.6667 5.33333 9.47748 5.33333 8C5.33333 6.52252 6.52252 5.33333 8 5.33333C9.47748 5.33333 10.6667 6.52252 10.6667 8Z" fill="white"/>
</svg>
